<?xml version="1.0" encoding="UTF-8"?>
<svg width="1415px" height="541px" viewBox="0 0 1415 541" version="1.1" xmlns="http://www.w3.org/2000/svg" xmlns:xlink="http://www.w3.org/1999/xlink">
    <title>Shape</title>
    <g id="Page-1" stroke="none" stroke-width="1" fill="none" fill-rule="evenodd">
        <g id="Desktop-Q&amp;A-Copy" transform="translate(0.000000, -3696.000000)" fill="#FF6400">
            <path d="M1111.95061,3713.34536 C1115.82336,3713.31501 1118.95941,3710.21462 1119.065,3706.36899 L1119.065,3706.12769 L1119.04588,3703.32777 C1119.02346,3699.37282 1115.80064,3696.18973 1111.84868,3696.21818 L-698.863271,3710.55157 L-698.761338,3727.67855 L1102.52474,3713.34928 L1111.95061,3713.34536 Z M1229.32812,3735.73682 C1229.32812,3733.4809 1228.44529,3731.42967 1227.0326,3729.88674 C1225.41894,3728.12432 1223.09403,3727.02512 1220.51598,3727.04145 L-690.355002,3739.65721 C-695.191486,3739.69051 -699.084947,3743.63538 -699.052032,3748.47195 L-698.511032,3829.23491 C-698.471119,3834.87295 -693.205515,3839.00604 -687.723873,3837.69032 C-627.919546,3823.32539 -320.657299,3755.46564 158.304362,3752.23609 L336.945977,3751.01483 L336.945977,3751.01483 L523.993678,3749.70224 L523.993678,3749.70224 L737.72315,3748.1653 L737.72315,3748.1653 L965.898619,3746.4841 L965.898619,3746.4841 L1205.53397,3744.66801 L1205.53397,3744.66801 L1220.65478,3744.5501 L1220.65478,3744.5501 C1225.48424,3744.51241 1229.36161,3740.56725 1229.32812,3735.73682 Z M1067.75389,3771.50221 C1067.72449,3766.44275 1063.59742,3762.37138 1058.54079,3762.40819 L132.407653,3769.00457 L132.407653,3769.00457 L130.897661,3769.00629 L130.897661,3769.00629 L128.897288,3769.0176 C128.49828,3769.02061 128.066593,3769.02427 127.602416,3769.02871 L124.429014,3769.06578 C70.432302,3769.80264 -249.451264,3779.21465 -691.714265,3897.39951 C-695.746015,3898.47455 -698.549613,3902.14842 -698.522694,3906.32023 L-697.53403,4062.88362 C-697.489927,4069.87831 -689.942785,4074.23908 -683.859901,4070.78294 L-475.809662,3952.57312 L-475.809662,3952.57312 L-475.357179,3952.30499 L-475.357179,3952.30499 L-473.846077,3951.42029 L-473.846077,3951.42029 L-472.294839,3950.52284 L-472.294839,3950.52284 L-470.317397,3949.39045 L-470.317397,3949.39045 L-467.921351,3948.03274 C-429.746726,3926.51416 -258.954273,3835.38801 -63.4290504,3810.96482 C83.2148668,3792.64742 167.839169,3787.88286 209.935412,3786.74918 L213.645728,3786.65585 L213.645728,3786.65585 L217.124985,3786.58086 C218.246588,3786.55874 219.330225,3786.5394 220.376435,3786.52257 L223.403334,3786.47931 C223.889286,3786.47326 224.366016,3786.46776 224.833594,3786.4628 L227.529768,3786.43898 L227.529768,3786.43898 L230.009525,3786.42606 L230.009525,3786.42606 L232.276121,3786.42238 L232.276121,3786.42238 L234.332811,3786.42628 L234.332811,3786.42628 L237.031387,3786.44272 L237.031387,3786.44272 L239.275977,3786.46689 L239.275977,3786.46689 L243.620177,3786.53158 L243.620177,3786.53158 L1058.6584,3780.72747 C1063.71503,3780.69041 1067.78812,3776.55845 1067.75389,3771.50221 Z M1414.8018,3806.57075 C1414.76367,3800.79811 1410.05053,3796.14817 1404.27569,3796.18661 L212.175869,3802.778 L209.219545,3802.90789 L209.219545,3802.90789 L205.641657,3803.08077 L205.641657,3803.08077 L200.76841,3803.33495 L200.76841,3803.33495 L197.87051,3803.49472 L197.87051,3803.49472 L194.67815,3803.67745 C194.122096,3803.70986 193.55418,3803.74327 192.974608,3803.77769 L189.358919,3803.99649 L189.358919,3803.99649 L185.473253,3804.24044 L185.473253,3804.24044 L181.327402,3804.51041 C180.615289,3804.55762 179.892743,3804.60595 179.159968,3804.65542 L174.642203,3804.96607 C173.096453,3805.07427 171.51142,3805.18717 169.888735,3805.30493 L164.909359,3805.67287 L164.909359,3805.67287 L159.713867,3806.07078 C103.17749,3810.47811 11.4287178,3820.14911 -62.0492095,3839.8697 L-75.5702254,3843.49957 L-75.5702254,3843.49957 L-82.1531414,3845.27365 L-82.1531414,3845.27365 L-88.6306505,3847.02953 C-187.194124,3873.84815 -252.019363,3896.63803 -441.128374,4025.33099 L-484.5344,4054.87999 L-484.5344,4054.87999 L-522.875663,4081.00184 L-522.875663,4081.00184 L-559.884512,4106.23899 L-559.884512,4106.23899 L-597.059156,4131.61894 L-597.059156,4131.61894 L-631.308893,4155.03878 L-631.308893,4155.03878 L-651.993597,4169.20794 L-651.993597,4169.20794 L-673.457542,4183.94295 L-673.457542,4183.94295 L-687.756117,4193.79315 L-687.756117,4193.79315 L-688.011429,4193.97936 L-688.011429,4193.97936 L-688.275541,4194.18446 L-688.275541,4194.18446 L-688.660945,4194.50286 L-688.660945,4194.50286 L-689.233882,4195.00311 L-689.233882,4195.00311 L-689.646401,4195.3738 L-689.646401,4195.3738 L-694.245218,4199.57718 L-694.245218,4199.57718 L-697.660758,4202.66607 L-697.660758,4202.66607 L-700.385954,4205.10917 L-700.385954,4205.10917 L-702.935915,4207.38152 L-702.935915,4207.38152 L-706.629648,4210.65432 L-706.629648,4210.65432 L-710.934833,4214.44641 L-710.934833,4214.44641 L-715.903883,4218.79949 L-715.903883,4218.79949 L-721.589208,4223.75524 L-721.589208,4223.75524 L-728.043219,4229.35532 L-728.043219,4229.35532 L-730.851797,4231.78511 L-730.851797,4231.78511 L-736.876496,4236.98465 L-736.876496,4236.98465 L-743.46695,4242.65525 L-743.46695,4242.65525 L-750.649994,4248.81826 L-750.649994,4248.81826 L-758.452462,4255.49503 L-758.452462,4255.49503 L-762.594367,4259.03273 L-762.594367,4259.03273 L-760.262567,4599.43181 C-727.838309,4577.89215 -707.722352,4567.17714 -694.849923,4561.14487 L-693.211573,4560.3841 C-692.945222,4560.26157 -692.682191,4560.14112 -692.422426,4560.02269 L-690.902629,4559.33592 L-690.902629,4559.33592 L-689.458745,4558.69468 L-689.458745,4558.69468 L-688.088276,4558.09595 L-688.088276,4558.09595 L-686.788725,4557.53671 L-686.788725,4557.53671 L-685.557595,4557.01392 L-685.557595,4557.01392 L-679.897776,4554.65485 L-679.897776,4554.65485 L-679.050498,4554.29519 L-679.050498,4554.29519 L-678.252907,4553.94926 L-678.252907,4553.94926 L-677.502508,4553.61404 L-677.502508,4553.61404 L-676.7968,4553.2865 C-674.288091,4552.09591 -672.630319,4550.99912 -671.269425,4549.32425 L-338.365666,4139.62163 L-338.365666,4139.62163 L-337.924043,4139.06379 L-337.924043,4139.06379 L-336.955812,4137.85802 L-336.955812,4137.85802 L-336.019668,4136.70646 L-336.019668,4136.70646 L-334.852331,4135.2853 C-334.638572,4135.02638 -334.415228,4134.75653 -334.182321,4134.47591 L-332.670334,4132.66413 C-309.359364,4104.87718 -215.681911,3999.66886 -66.7677807,3914.39404 C83.8812173,3828.12689 214.308533,3823.1076 345.508893,3822.60279 L354.558674,3822.5742 L354.558674,3822.5742 L381.738029,3822.51839 C389.296652,3822.49981 396.864206,3822.47283 404.444674,3822.42289 L1404.41763,3817.09482 C1410.19247,3817.05614 1414.84176,3812.34485 1414.8018,3806.57075 Z M916.893763,3844.56351 C916.860769,3839.51352 912.740885,3835.44916 907.694409,3835.4837 L362.346468,3839.3836 L362.346468,3839.3836 L359.529439,3839.42679 L359.529439,3839.42679 L356.555261,3839.49386 L356.555261,3839.49386 L354.398673,3839.55367 L354.398673,3839.55367 L351.970023,3839.63095 L351.970023,3839.63095 L349.275037,3839.72798 L349.275037,3839.72798 L347.333243,3839.80477 L347.333243,3839.80477 L344.207088,3839.9398 L344.207088,3839.9398 L340.829867,3840.10069 L340.829867,3840.10069 L338.441732,3840.22344 L338.441732,3840.22344 L335.946254,3840.35937 L335.946254,3840.35937 L333.345129,3840.50916 L333.345129,3840.50916 L330.640053,3840.67348 L330.640053,3840.67348 L327.832724,3840.85302 C327.356409,3840.88425 326.875904,3840.91614 326.391244,3840.94871 L323.433716,3841.15234 L323.433716,3841.15234 L320.378175,3841.37287 L320.378175,3841.37287 L317.226319,3841.611 C316.693078,3841.65219 316.155894,3841.69414 315.614803,3841.73686 L312.321655,3842.00263 C306.755875,3842.46146 300.806454,3843.0006 294.508737,3843.63419 L290.688595,3844.02578 C289.401471,3844.16016 288.100697,3844.29844 286.786558,3844.44071 L282.804324,3844.87967 C262.695486,3847.13561 239.642863,3850.31765 214.600805,3854.80675 C131.125816,3869.77277 -7.03304983,3909.94955 -105.592638,4017.77095 C-172.614747,4091.08851 -248.470591,4199.50347 -290.155267,4261.38132 L-293.743553,4266.71828 C-294.326456,4267.58695 -294.901695,4268.44504 -295.469135,4269.29229 L-298.779073,4274.24357 L-298.779073,4274.24357 L-301.89524,4278.92216 L-301.89524,4278.92216 L-304.81107,4283.31559 L-304.81107,4283.31559 L-308.794824,4289.34379 L-308.794824,4289.34379 L-311.181092,4292.9698 L-311.181092,4292.9698 L-313.344046,4296.26703 L-313.344046,4296.26703 L-316.155402,4300.56916 L-316.155402,4300.56916 L-319.061007,4305.03831 L-319.061007,4305.03831 L-321.820586,4309.3135 L-321.820586,4309.3135 L-599.427393,4725.4952 C-603.496556,4731.59631 -599.098343,4739.76123 -591.768853,4739.70887 L-189.670653,4736.83555 C-185.857156,4736.80785 -182.460496,4734.41484 -181.146268,4730.83446 L20.7817999,4180.15432 L21.5537389,4177.93425 L21.5537389,4177.93425 L22.3759137,4175.62057 L22.3759137,4175.62057 L23.1800976,4173.39159 L23.1800976,4173.39159 L23.8039429,4171.68179 L23.8039429,4171.68179 L24.4969783,4169.79997 L24.4969783,4169.79997 L25.6644099,4166.6679 L25.6644099,4166.6679 L26.5267148,4164.3824 L26.5267148,4164.3824 L27.4552452,4161.94597 L27.4552452,4161.94597 L28.4491541,4159.36464 L28.4491541,4159.36464 L29.5075946,4156.64443 L29.5075946,4156.64443 L30.6297196,4153.79137 C31.3988429,4151.84639 32.209858,4149.81685 33.0616354,4147.7108 L34.3697321,4144.49534 C48.1997222,4110.69664 71.6872111,4059.47985 100.626713,4020.76268 L102.031248,4018.89915 C104.906259,4015.11644 107.766398,4011.21158 110.665709,4007.21239 L116.532575,3999.09648 C161.16601,3937.40755 222.720286,3858.66887 483.600847,3856.8034 L907.809966,3853.77418 C912.857904,3853.73707 916.924079,3849.61204 916.893763,3844.56351 Z" id="Shape"></path>
        </g>
    </g>
</svg>