<?xml version="1.0" encoding="UTF-8"?>
<svg width="46px" height="46px" viewBox="0 0 46 46" version="1.1" xmlns="http://www.w3.org/2000/svg" xmlns:xlink="http://www.w3.org/1999/xlink">
    <title>Twitter-Light</title>
    <g id="Twitter-Light" stroke="none" stroke-width="1" fill="none" fill-rule="evenodd">
        <path d="M46,8.3975981 C44.3080625,9.14338958 42.4881875,9.64772751 40.5791875,9.87489388 C42.5284375,8.71334507 44.024875,6.87601201 44.72925,4.68578528 C42.9065,5.76018221 40.885375,6.54026297 38.7363125,6.96173517 C37.0141875,5.13868931 34.5618125,4 31.8478125,4 C26.6354375,4 22.410625,8.19900611 22.410625,13.3795424 C22.410625,14.1139041 22.494,14.8296925 22.655,15.5169065 C14.8105625,15.1254374 7.857375,11.3907651 3.20275,5.71589191 C2.3905625,7.10174966 1.9248125,8.71334507 1.9248125,10.4320944 C1.9248125,13.6852883 3.590875,16.5570142 6.1223125,18.2386168 C4.5755625,18.1900404 3.1208125,17.7685682 1.848625,17.0656383 C1.8471875,17.1056424 1.8471875,17.1442178 1.8471875,17.184222 C1.8471875,21.7289782 5.10025,25.5193705 9.4185,26.3808883 C8.6264375,26.5951962 7.7926875,26.7094937 6.931625,26.7094937 C6.3235625,26.7094937 5.73275,26.6509162 5.1563125,26.5423336 C6.356625,30.2684336 9.8425625,32.9801429 13.9725,33.055865 C10.7424375,35.5718397 6.672875,37.0705663 2.251125,37.0705663 C1.48925,37.0705663 0.738875,37.026276 0,36.9405529 C4.1759375,39.6008282 9.13675,41.1538462 14.467,41.1538462 C31.82625,41.1538462 41.3180625,26.860938 41.3180625,14.4667978 C41.3180625,14.0596128 41.3094375,13.6552852 41.29075,13.2523864 C43.1350625,11.930821 44.735,10.2792215 46,8.3975981" id="Fill-1" fill="#FFFFFF"></path>
    </g>
</svg>