<?xml version="1.0" encoding="UTF-8"?>
<svg width="46px" height="46px" viewBox="0 0 46 46" version="1.1" xmlns="http://www.w3.org/2000/svg" xmlns:xlink="http://www.w3.org/1999/xlink">
    <title>YouTube-Dark</title>
    <g id="YouTube-Dark" stroke="none" stroke-width="1" fill="none" fill-rule="evenodd">
        <path d="M18.2505,28.9010974 L18.2490625,16.1178744 L30.6776875,22.5315235 L18.2505,28.9010974 Z M45.54,13.9027414 C45.54,13.9027414 45.0900625,10.7677167 43.7115,9.38716844 C41.9620625,7.57439908 40.0013125,7.5658684 39.102875,7.46065668 C32.66575,7 23.0100625,7 23.0100625,7 L22.9899375,7 C22.9899375,7 13.33425,7 6.897125,7.46065668 C5.99725,7.5658684 4.0379375,7.57439908 2.2870625,9.38716844 C0.9085,10.7677167 0.46,13.9027414 0.46,13.9027414 C0.46,13.9027414 0,17.5851513 0,21.2661394 L0,24.718221 C0,28.4006309 0.46,32.0816191 0.46,32.0816191 C0.46,32.0816191 0.9085,35.2166437 2.2870625,36.597192 C4.0379375,38.4099613 6.3365,38.3530901 7.36,38.5421869 C11.04,38.8919447 23,39 23,39 C23,39 32.66575,38.9857822 39.102875,38.5251255 C40.0013125,38.418492 41.9620625,38.4099613 43.7115,36.597192 C45.0900625,35.2166437 45.54,32.0816191 45.54,32.0816191 C45.54,32.0816191 46,28.4006309 46,24.718221 L46,21.2661394 C46,17.5851513 45.54,13.9027414 45.54,13.9027414 L45.54,13.9027414 Z" id="Fill-25" fill="#161F35"></path>
    </g>
</svg>