<?xml version="1.0" encoding="UTF-8"?>
<svg width="1134px" height="578px" viewBox="0 0 1134 578" version="1.1" xmlns="http://www.w3.org/2000/svg" xmlns:xlink="http://www.w3.org/1999/xlink">
    <title>Combined Shape</title>
    <g id="Holding-Page-Desktop" stroke="none" stroke-width="1" fill="none" fill-rule="evenodd">
        <g id="Desktop-OurTeam" transform="translate(-53.000000, -232.000000)" fill="#F8F8F9">
            <g id="Combined-Shape">
                <path d="M1062.13151,27.9960126 C1063.33861,26.102459 1065.85812,25.5308375 1067.75993,26.7375007 L1067.75993,26.7375007 L1069.10534,27.5922204 C1071.00715,28.7973124 1071.57141,31.3159075 1070.36588,33.2170304 L1070.36588,33.2170304 L486.145135,954 L477.910764,948.778982 Z M1034.4213,26.7592595 L1034.62215,26.8803415 C1036.94618,28.3544274 1037.636,31.4346069 1036.16207,33.7604568 L464.834439,934.648538 C463.358944,936.974388 460.279104,937.664286 457.95351,936.188628 L419.116097,911.553478 C416.405524,909.832663 415.998545,906.042157 418.287998,903.79174 C443.270844,879.243023 568.757045,751.322853 714.843607,520.970998 C867.468543,280.306827 1002.95794,67.4051321 1027.74908,28.4094306 C1029.18242,26.1546134 1032.12529,25.4465673 1034.4213,26.7592595 Z M971.401058,71.00435 C973.831929,72.5447317 974.551605,75.7653869 973.010116,78.1954175 L690.806006,523.269842 C690.806006,523.269842 589.609825,686.99984 380.547104,882.450697 C378.813911,884.072813 376.197622,884.318017 374.194157,883.046416 L298.997449,835.338595 C295.637913,833.20721 295.80919,828.248124 299.308575,826.354083 L418.963344,761.590465 C418.963344,761.590465 531.204508,704.099648 611.5348,605.205572 C691.865092,506.311497 714.292897,466.767699 715.887812,464.254362 L964.212156,72.6123199 C965.753645,70.1822892 968.973331,69.4623965 971.401058,71.00435 Z M990.092235,-23.073054 C992.867601,-21.3131997 993.690629,-17.6347899 991.929913,-14.8583054 L685.986285,467.706323 C685.986285,467.706323 634.865839,542.779823 585.356895,588.914719 C535.846381,635.049614 511.007879,658.944351 381.470392,715.985629 C274.027456,763.298999 235.736204,779.918623 225.800175,784.212982 C223.992339,784.993917 221.920632,784.82736 171.675046,800.686475 L8.04783809,696.864498 C51.9165223,676.959288 53.542161,669.704603 59.0834685,669.014803 L357.268009,631.892875 C357.268009,631.892875 447.852994,622.395947 547.956211,568.709391 C648.060999,515.021264 688.285739,441.847463 734.502568,368.950211 L981.879225,-21.2346348 C983.639941,-24.0111192 987.316869,-24.8344797 990.092235,-23.073054 Z M870.217156,101.064751 C872.645603,102.606854 873.365026,105.82782 871.825648,108.258085 L705.714233,370.354189 C704.518859,372.240553 685.790288,401.78887 653.380105,437.639214 C620.968351,473.489558 559.884903,528.168957 478.087401,543.252008 C396.289899,558.336631 272.0794,559.721536 272.0794,559.721536 L-12.6284975,568.211066 C-16.8020959,568.332787 -19.4174672,563.737919 -17.1806572,560.208847 L105.525021,366.598753 C106.688979,364.762692 108.86924,363.84309 110.994524,364.289529 L437.810684,433.053778 C437.810684,433.053778 495.28759,446.61359 540.185581,442.491885 C585.083573,438.37018 645.119302,446.50198 733.576968,306.931494 L863.029205,102.674448 C864.570153,100.244183 867.788709,99.5242207 870.217156,101.064751 Z" transform="translate(526.500000, 465.000000) scale(1, -1) rotate(58.000000) translate(-526.500000, -465.000000) "></path>
            </g>
        </g>
    </g>
</svg>