<?xml version="1.0" encoding="UTF-8"?>
<svg width="1440px" height="810px" viewBox="0 0 1440 810" version="1.1" xmlns="http://www.w3.org/2000/svg" xmlns:xlink="http://www.w3.org/1999/xlink">
    <title>Combined Shape</title>
    <defs>
        <rect id="path-1" x="0" y="0" width="1440" height="810"></rect>
    </defs>
    <g id="Holding-Page-Desktop" stroke="none" stroke-width="1" fill="none" fill-rule="evenodd">
        <g id="Combined-Shape">
            <mask id="mask-2" fill="white">
                <use xlink:href="#path-1"></use>
            </mask>
            <use id="Mask" fill="#D8D8D8" opacity="0" xlink:href="#path-1"></use>
            <path d="M729.7179,203.5485 C732.9029,200.3625 738.0689,200.3625 741.2559,203.5485 C744.4369,206.7295 744.4419,211.8815 741.2719,215.0695 L741.2719,215.0695 L741.2729,215.0705 L481.0519,475.2905 C298.9619,657.3805 245.9319,858.2065 233.5079,994.6175 C227.2479,1063.3275 230.4249,1128.1995 239.1919,1181.6195 L239.1919,1181.6195 L130.4429,1072.8705 C132.9579,1035.6045 144.2149,975.7895 173.3639,900.0095 C213.3139,796.1495 297.1199,636.1575 469.5189,463.7585 L469.5189,463.7585 L729.6099,203.6675 C729.6479,203.6285 729.6799,203.5865 729.7179,203.5485 Z M661.539848,204.925722 C664.400699,202.290266 668.856389,202.357689 671.6323,205.1336 C674.4703,207.9726 674.4773,212.5686 671.6563,215.4186 L671.6563,215.4186 L671.6573,215.4196 L671.6323,215.4446 L446.4193,440.6586 C266.4293,620.6476 180.5403,787.9606 140.1813,896.6296 C115.9003,961.9956 105.7883,1011.8886 101.6223,1044.0496 L101.6223,1044.0496 L5.4853,947.9126 C21.2503,920.8096 49.9193,876.5196 95.9793,815.2806 C158.0043,732.8146 267.3603,599.0956 436.1093,430.3476 L436.1093,430.3476 L661.3153,205.140975 L661.3153,205.140975 L661.3213,205.1336 C661.3253,205.1296 661.3303,205.1266 661.3353,205.1226 L661.3353,205.1226 L661.3473,205.1096 Z M729.9424,69.0459 C732.7334,66.3079 737.2134,66.3209 739.9844,69.0919 C742.7544,71.8629 742.7674,76.3419 740.0304,79.1329 L740.0304,79.1329 L740.0324,79.1349 L412.4644,406.7039 C234.8574,584.3099 121.9704,723.8589 58.5444,809.6469 C18.5454,863.7479 -5.5646,901.4469 -18.7906,923.6369 L-18.7906,923.6369 L-114.5626,827.8649 C-92.3746,814.6369 -54.6716,790.5299 -0.5706,750.5309 C85.2164,687.1049 224.7654,574.2179 402.3724,396.6119 L402.3724,396.6119 L729.8904,69.0919 L729.8904,69.0919 L729.8924,69.0919 L729.9404,69.0429 Z M563.8676,168.2926 C566.7156,165.4466 571.3306,165.4476 574.1786,168.2946 C577.0256,171.1416 577.0266,175.7576 574.1806,178.6056 L574.1806,178.6056 L379.2736,373.5126 C210.5236,542.2596 76.8066,651.6166 -5.6604,713.6406 C-66.8984,759.7026 -111.1884,788.3716 -138.2924,804.1346 L-138.2924,804.1346 L-234.4304,707.9976 C-202.2684,703.8326 -152.3774,693.7186 -87.0094,669.4386 C21.6596,629.0796 188.9696,543.1876 368.9606,363.1996 L368.9606,363.1996 Z M564.4875,98.4098 C567.6715,95.2248 572.8345,95.2248 576.0195,98.4098 C579.2055,101.5948 579.2055,106.7578 576.0195,109.9428 C576.0175,109.9458 576.0145,109.9478 576.0115,109.9498 L576.0115,109.9498 L576.0125,109.9508 L345.8615,340.1008 C173.4625,512.4998 13.4705,596.3068 -90.3895,636.2568 C-166.1675,665.4058 -225.9855,676.6608 -263.2515,679.1758 L-263.2515,679.1758 L-372.0005,570.4278 C-318.5805,579.1958 -253.7095,582.3698 -184.9975,576.1128 C-48.5885,563.6858 152.2395,510.6578 334.3295,328.5678 L334.3295,328.5678 L564.4795,98.4178 C564.4825,98.4148 564.4845,98.4118 564.4875,98.4098 Z" fill="#F8F8F9" mask="url(#mask-2)"></path>
        </g>
    </g>
</svg>