<?xml version="1.0" encoding="UTF-8"?>
<svg width="2390px" height="1191px" viewBox="0 0 2390 1191" version="1.1" xmlns="http://www.w3.org/2000/svg" xmlns:xlink="http://www.w3.org/1999/xlink">
    <title>Artboard Copy</title>
    <g id="Artboard-Copy" stroke="none" stroke-width="1" fill="none" fill-rule="evenodd">
        <g id="Group-13-Copy" transform="translate(219.000000, 565.000000) scale(-1, -1) translate(-219.000000, -565.000000) translate(-1683.000000, 0.000000)" fill="#FF6400" fill-rule="nonzero">
            <g id="Combined-Shape" transform="translate(1902.021069, 564.348735) rotate(-90.000000) translate(-1902.021069, -564.348735) translate(1337.525576, -1336.355148)">
                <path d="M562.288251,0 L563.510739,0 C570.109985,0 575.462128,8.25097522 575.475803,18.4411197 L576.92802,1236.34506 C576.92802,1236.34506 579.878946,1603.54936 591.690858,1649.1642 C601.030445,1685.22684 609.407357,1692.50189 624.172931,1758.64066 C638.93577,1824.78365 643.366261,2472.52533 643.366261,2472.52533 L643.366261,3779.18324 C643.366261,3789.39028 638.008647,3797.66239 631.403932,3797.66239 L498.852899,3797.66239 C492.237244,3797.66239 486.876895,3789.37761 486.89057,3779.15789 C487.076541,3643.90612 488.099383,2803.9712 485.38639,2479.36947 C482.432729,2125.84919 495.721471,1817.94375 500.151963,1767.76616 C504.579721,1717.58857 516.391633,1710.74444 534.110866,1646.88283 C551.827367,1583.02121 551.827367,1323.01198 550.350535,1238.6222 C548.991304,1160.96671 550.13448,156.341827 550.323187,18.4284454 C550.339596,8.23407614 555.689005,0 562.288251,0 Z M525.37454,135.167896 C531.600344,135.167896 536.631297,143.025014 536.56363,152.643648 L529.306339,1177.35977 C529.306339,1177.35977 532.259289,1451.01984 514.547053,1555.92504 C496.832085,1660.82603 490.928917,1681.35169 464.35783,1713.27863 C437.789478,1745.20557 430.409835,1777.1325 424.503934,1854.66875 C418.600767,1932.20499 396.459106,2173.94235 399.409322,2689.33554 C402.282981,3191.01678 400.962355,3766.16211 400.888532,3796.41201 C400.888532,3797.10901 400.522146,3797.66239 400.071002,3797.66239 L240.803063,3797.66239 C240.354652,3797.66239 239.991002,3797.11746 239.985534,3796.42046 C239.764062,3755.44516 234.232748,2710.25405 241.470212,2502.33189 C248.849855,2290.24882 265.771902,1945.53675 299.036344,1806.77834 C328.557647,1683.63279 419.727263,1741.484 467.310781,1565.04521 C474.690423,1537.68048 496.832085,1437.33747 502.737986,1143.15174 C507.741597,893.831842 512.198365,263.086856 512.955742,152.005785 C513.018629,142.670177 517.937479,135.167896 523.980091,135.167896 L525.37454,135.167896 Z M480.192833,607.329723 C486.212,607.329723 491.06245,614.912462 490.962507,624.176502 C490.275075,686.236685 487.838876,907.00636 485.948628,1071.52436 C483.726418,1264.80607 481.50421,1415.32451 454.843198,1533.34067 C428.184928,1651.36105 360.424034,1699.25271 305.993648,1719.77891 C251.566004,1740.30089 229.349407,1805.29701 200.468929,1950.68284 C171.585707,2096.0729 162.699618,2547.62401 162.699618,2547.62401 L163.810722,3797.94387 C163.810722,3797.94387 4.96397784,3801.36561 1.63066533,3801.36561 C-1.6999037,3801.36561 1.63066533,3094.96264 1.63066533,2629.72458 C1.63066533,2409.64771 32.7333517,2078.96844 70.502663,1907.92379 C108.269231,1736.88337 184.916214,1724.90729 209.355019,1719.77891 C233.793824,1714.6463 269.338184,1706.09618 333.765764,1661.62204 C398.193346,1617.15212 410.665146,1562.5395 442.626539,1405.0593 C453.732094,1350.32839 457.065406,1127.97035 461.509822,999.688985 C465.268372,891.156533 467.976174,685.429831 468.722397,624.653854 C468.840367,615.02652 473.940472,607.329723 480.192833,607.329723 Z M605.283015,507.342513 C611.467579,507.342513 616.503307,515.013802 616.568954,524.564896 C617.107813,599.579627 619.498484,904.724588 624.285297,1143.13863 C630.190858,1437.32581 652.341494,1537.66931 659.724128,1565.03419 C707.329671,1741.47384 798.53351,1683.62235 828.06678,1806.76851 C861.344707,1945.5276 878.273614,2290.24138 885.658983,2502.32548 C893.041618,2714.41382 887.136057,3797.66239 887.136057,3797.66239 L726.176039,3797.66239 C726.176039,3797.66239 724.698965,3204.72579 727.653112,2689.33006 C730.604524,2173.93432 708.456623,1932.2 702.548328,1854.65915 C696.642768,1777.12253 689.260135,1745.19543 662.678276,1713.26833 C636.099152,1681.34124 630.190858,1660.81547 612.471442,1555.91397 C594.749291,1451.00825 597.703438,1177.34683 597.703438,1177.34683 L592.965019,526.579875 C592.886537,515.993834 598.425564,507.342513 605.283015,507.342513 Z M651.910762,709.168549 C658.072424,709.168549 663.087666,716.820469 663.14786,726.334694 C663.429677,771.215826 664.499486,895.724225 668.059131,998.801337 C672.491587,1127.03857 675.81593,1349.3201 686.894334,1404.03218 C718.769716,1561.46241 731.205218,1616.05203 795.459421,1660.51087 C859.713623,1704.96548 895.165066,1713.51266 919.535369,1718.6435 C943.908406,1723.77434 1020.34913,1735.74208 1058.01406,1906.72365 C1095.68173,2077.70944 1126.70072,2417.39643 1126.70072,2628.2761 C1126.70072,3093.35408 1130.02506,3799.514 1126.70072,3799.514 C1123.37638,3799.514 964.957102,3796.09344 964.957102,3796.09344 L966.065217,2546.20376 C966.065217,2546.20376 957.20304,2094.80802 928.400281,1949.47221 C899.594787,1804.1364 877.437976,1739.16264 823.154065,1718.6435 C768.872891,1698.12436 701.294346,1650.24918 674.707816,1532.27363 C648.11855,1414.29386 645.90232,1263.8272 643.688829,1070.61621 C641.888486,913.840527 641.174367,773.508869 640.966203,726.157331 C640.92812,716.790908 645.833919,709.168549 651.902554,709.168549 L651.910762,709.168549 Z" id="Shape"></path>
            </g>
        </g>
    </g>
</svg>