<?xml version="1.0" encoding="UTF-8"?>
<svg width="1767px" height="810px" viewBox="0 0 1767 810" version="1.1" xmlns="http://www.w3.org/2000/svg" xmlns:xlink="http://www.w3.org/1999/xlink">
    <!-- Generator: Sketch 54.1 (76490) - https://sketchapp.com -->
    <title>Group-13</title>
    <desc>Created with Sketch.</desc>
    <g id="Holding-Page-Desktop" stroke="none" stroke-width="1" fill="none" fill-rule="evenodd">
        <g id="Group-13" fill="#F8F8F9" fill-rule="nonzero">
            <g id="Combined-Shape" transform="translate(883.500000, 405.000000) rotate(-90.000000) translate(-883.500000, -405.000000) translate(478.500000, -478.500000)">
                <path d="M403.287408,0 L404.164207,0 C408.897354,0 412.736047,3.83532517 412.745855,8.57204013 L413.787422,574.693922 C413.787422,574.693922 415.903901,745.382584 424.375704,766.585864 C431.074293,783.348965 437.082427,786.730649 447.672671,817.474129 C458.260954,848.219572 461.438615,1149.31125 461.438615,1149.31125 L461.438615,1756.6889 C461.438615,1761.43347 457.595998,1765.27862 452.858929,1765.27862 L357.789963,1765.27862 C353.045047,1765.27862 349.200469,1761.42758 349.210277,1756.67712 C349.34366,1693.80764 350.077268,1303.37821 348.131441,1152.49263 C346.013,988.164755 355.544023,845.04016 358.721685,821.715963 C361.897385,798.391766 370.369188,795.21039 383.077872,765.525406 C395.784596,735.840421 395.784596,614.979565 394.725375,575.752416 C393.7505,539.655585 394.570415,72.6728332 394.70576,8.56614869 C394.717529,3.82746992 398.554261,0 403.287408,0 Z M376.811957,62.830492 C381.277262,62.830492 384.885589,66.4827396 384.836563,70.9537977 L379.631943,547.275619 C379.631943,547.275619 381.749874,674.481834 369.046209,723.245231 C356.340584,772.006665 352.106682,781.547671 333.049224,796.388363 C313.993727,811.229056 308.70086,826.069748 304.464998,862.111149 C300.231097,898.15255 284.350535,1010.52004 286.466505,1250.09178 C288.527566,1483.28975 287.58038,1750.63625 287.527432,1764.6974 C287.527432,1765.02139 287.264651,1765.27862 286.941079,1765.27862 L172.71007,1765.27862 C172.388458,1765.27862 172.127639,1765.02532 172.123717,1764.70133 C171.964872,1745.65466 167.997673,1259.81539 173.188566,1163.16632 C178.481433,1064.58312 190.618355,904.34959 214.476457,839.85011 C235.649885,782.608001 301.039048,809.499147 335.167155,727.484587 C340.460022,714.764555 356.340584,668.121818 360.576446,531.374596 C364.165163,415.482494 367.36167,122.29144 367.90488,70.657298 C367.949984,66.3177994 371.477908,62.830492 375.811823,62.830492 L376.811957,62.830492 Z M344.40649,282.306868 C348.723589,282.306868 352.202455,285.831575 352.129651,290.137806 C351.63773,318.985424 349.890426,421.606444 348.534692,498.07983 C346.940867,587.92354 345.347043,657.889472 326.225088,712.74727 C307.1051,767.607033 258.505267,789.868653 219.466412,799.409908 C180.429524,808.949199 164.495217,839.161537 143.781405,906.741664 C123.065625,974.323755 116.692296,1184.21959 116.692296,1184.21959 L117.489208,1765.40946 C117.489208,1765.40946 3.56029092,1767 1.16955457,1767 C-1.21921409,1767 1.16955457,1438.64062 1.16955457,1222.38264 C1.16955457,1120.08366 23.4771908,966.373036 50.5662997,886.865849 C77.6534409,807.360626 132.626603,801.793749 150.154734,799.409908 C167.682866,797.024103 193.176183,793.049725 239.385279,772.376679 C285.594376,751.705596 294.539468,726.319848 317.46299,653.117862 C325.428176,627.677133 327.818912,524.31779 331.00656,464.688382 C333.702288,414.238922 335.644392,318.610372 336.179602,290.359695 C336.264213,285.884593 339.922138,282.306868 344.40649,282.306868 Z M434.124344,235.829518 C438.56007,235.829518 442.171822,239.395386 442.218906,243.835049 C442.605389,278.704368 444.320039,420.545801 447.753263,531.368502 C451.988881,668.116399 467.87588,714.759367 473.170892,727.479462 C507.314796,809.494427 572.728505,782.603148 593.910516,839.84554 C617.77829,904.345338 629.920132,1064.57966 635.217106,1163.16334 C640.512119,1261.74899 636.276501,1765.27862 636.276501,1765.27862 L520.83189,1765.27862 C520.83189,1765.27862 519.772495,1489.66215 521.891284,1250.08923 C524.008112,1010.51631 508.123075,898.150231 503.885496,862.106689 C499.649878,826.06511 494.354866,811.224344 475.289682,796.383578 C456.22646,781.542812 451.988881,772.001759 439.280066,723.240085 C426.56929,674.476447 428.688079,547.269603 428.688079,547.269603 L425.290168,244.771678 C425.233275,239.850937 429.206006,235.829518 434.124344,235.829518 Z M467.566948,329.64491 C471.986248,329.64491 475.583307,333.201775 475.62648,337.6243 C475.828606,358.486529 476.5959,416.362136 479.148968,464.275774 C482.328038,523.884666 484.712341,627.208446 492.658054,652.640421 C515.519887,725.819184 524.438945,751.194234 570.52369,771.860168 C616.608435,792.524139 642.03511,796.497149 659.51411,798.882133 C676.995071,801.267116 731.820297,806.830116 758.834545,886.307984 C785.850755,965.787815 808.09836,1123.68552 808.09836,1221.70934 C808.09836,1437.89291 810.482663,1766.13931 808.09836,1766.13931 C805.714057,1766.13931 692.09173,1764.54932 692.09173,1764.54932 L692.886498,1183.55941 C692.886498,1183.55941 686.53032,973.735798 665.87225,906.178923 C645.212218,838.622048 629.320791,808.420105 590.386992,798.882133 C551.455156,789.34416 502.986108,767.0902 483.917574,712.251276 C464.847077,657.410389 463.257541,587.46853 461.669969,497.657695 C460.378717,424.78319 459.866533,359.552411 459.717392,337.541856 C459.689918,333.188034 463.208482,329.64491 467.561061,329.64491 L467.566948,329.64491 Z" id="Shape"></path>
            </g>
        </g>
    </g>
</svg>