<?xml version="1.0" encoding="UTF-8"?>
<svg width="46px" height="46px" viewBox="0 0 46 46" version="1.1" xmlns="http://www.w3.org/2000/svg" xmlns:xlink="http://www.w3.org/1999/xlink">
    <title>Facebook-Dark</title>
    <defs>
        <path d="M44.0838125,0 L1.917625,0 C0.8581875,0 0,0.8581875 0,1.9161875 L0,44.0838125 C0,45.1418125 0.8581875,46 1.917625,46 L24.4375,46 L24.4375,28.75 L18.6875,28.75 L18.6875,21.5625 L24.4375,21.5625 L24.4375,15.8125 C24.4375,9.8713125 28.1994375,6.9474375 33.4995,6.9474375 C36.038125,6.9474375 38.22025,7.1371875 38.855625,7.2205625 L38.855625,13.4305625 L35.1799375,13.432 C32.29775,13.432 31.625,14.8019375 31.625,16.8115625 L31.625,21.5625 L38.8125,21.5625 L37.375,28.75 L31.625,28.75 L31.74,46 L44.0838125,46 C45.1418125,46 46,45.1418125 46,44.0838125 L46,1.9161875 C46,0.8581875 45.1418125,0 44.0838125,0" id="path-1"></path>
    </defs>
    <g id="Facebook-Dark" stroke="none" stroke-width="1" fill="none" fill-rule="evenodd">
        <mask id="mask-2" fill="white">
            <use xlink:href="#path-1"></use>
        </mask>
        <use id="Fill-3" fill="#161F35" xlink:href="#path-1"></use>
    </g>
</svg>