<?xml version="1.0" encoding="UTF-8"?>
<svg width="1678px" height="646px" viewBox="0 0 1678 646" version="1.1" xmlns="http://www.w3.org/2000/svg" xmlns:xlink="http://www.w3.org/1999/xlink">
    <!-- Generator: Sketch 54.1 (76490) - https://sketchapp.com -->
    <title>Group 14</title>
    <desc>Created with Sketch.</desc>
    <defs>
        <polygon id="path-1" points="0.000345907474 0.0146619217 1673.64944 0.0146619217 1673.64944 508.60069 0.000345907474 508.60069"></polygon>
        <polygon id="path-3" points="0.000230604983 0.0768099644 1677.81382 0.0768099644 1677.81382 269.086746 0.000230604983 269.086746"></polygon>
        <polygon id="path-5" points="0 0.762149466 1674.90543 0.762149466 1674.90543 197.16726 0 197.16726"></polygon>
    </defs>
    <g id="Holding-Page-Desktop" stroke="none" stroke-width="1" fill="none" fill-rule="evenodd">
        <g id="Group-14" transform="translate(839.000000, 322.500000) scale(1, -1) translate(-839.000000, -322.500000) translate(0.000000, -1.000000)">
            <g id="Group-3" transform="translate(0.000000, 0.138363)">
                <mask id="mask-2" fill="white">
                    <use xlink:href="#path-1"></use>
                </mask>
                <g id="Clip-2"></g>
                <path d="M1217.60849,508.60069 L0.000345907474,508.60069 L0.000345907474,480.963836 L1217.60849,480.963836 C1250.62997,480.963836 1277.35478,468.972377 1299.30607,444.304562 L1671.50366,0.0140854093 L1673.64944,82.432306 C1673.64944,82.432306 1375.79774,408.318655 1360.97906,425.010996 C1345.98743,441.898199 1326.22805,462.462399 1326.22805,462.462399 C1296.47309,494.111779 1258.4002,508.60069 1217.60849,508.60069" id="Fill-1" fill="#F8F8F9" mask="url(#mask-2)"></path>
            </g>
            <path d="M1223.13609,543.051115 L0.000345907472,543.051115 L0.000345907472,515.41426 L1223.13609,515.41426 C1267.0721,515.41426 1300.79001,501.835086 1332.46015,471.383698 L1677.81301,110.602204 L1677.20191,203.484125 C1677.20191,203.484125 1412.22756,445.606673 1394.56322,462.599954 C1376.4123,480.062517 1351.6142,500.390346 1351.6142,500.390346 C1307.86497,534.13362 1274.07327,543.051115 1223.13609,543.051115" id="Fill-4" fill="#F8F8F9"></path>
            <path d="M1241.31088,577.252485 C1237.76186,577.253638 1230.12769,577.39892 1228.40391,577.36087 L0,577.36087 L0,549.724016 L1229.18682,549.73324 C1301.1252,548.531788 1327.27004,533.876841 1368.36961,501.614051 L1677.81382,228.241069 L1677.81382,322.457041 L1434.38951,499.822251 L1395.27199,526.244969 C1362.9723,546.686948 1319.81342,577.367788 1241.31088,577.252485" id="Fill-6" fill="#F8F8F9"></path>
            <g id="Group-10" transform="translate(0.000000, 342.586762)">
                <mask id="mask-4" fill="white">
                    <use xlink:href="#path-3"></use>
                </mask>
                <g id="Clip-9"></g>
                <path d="M1232.82254,269.086746 L0.000230604983,269.086746 L0.000230604983,241.449892 L1232.82254,241.449892 C1323.18395,241.328824 1347.6938,225.813721 1396.09548,197.060739 C1472.98955,151.381351 1677.81405,0.0768099644 1677.81405,0.0768099644 L1677.2018,85.1112441 C1677.2018,85.1112441 1525.17661,165.486305 1446.33623,206.558205 C1421.44934,219.522817 1404.87922,227.347244 1396.72042,231.292895 C1344.83429,256.386177 1321.77264,269.086746 1232.82254,269.086746" id="Fill-8" fill="#F8F8F9" mask="url(#mask-4)"></path>
            </g>
            <g id="Group-13" transform="translate(0.000000, 448.818078)">
                <mask id="mask-6" fill="white">
                    <use xlink:href="#path-5"></use>
                </mask>
                <g id="Clip-12"></g>
                <path d="M1239.71809,197.16726 L-0.000461209965,197.16726 L-0.000461209965,169.530406 L1239.71809,169.530406 C1339.91134,169.530406 1370.97383,150.262206 1453.07612,111.662391 L1674.90543,0.762149466 L1674.90543,96.5819786 L1459.03611,166.044811 C1398.76288,187.541808 1332.37402,197.16726 1239.71809,197.16726" id="Fill-11" fill="#F8F8F9" mask="url(#mask-6)"></path>
            </g>
        </g>
    </g>
</svg>