<?xml version="1.0" encoding="UTF-8"?>
<svg width="46px" height="46px" viewBox="0 0 46 46" version="1.1" xmlns="http://www.w3.org/2000/svg" xmlns:xlink="http://www.w3.org/1999/xlink">
    <title>Instagram-Light</title>
    <defs>
        <polygon id="path-1" points="4.56036573e-05 0.0145110837 45.9539846 0.0145110837 45.9539846 45.9684865 4.56036573e-05 45.9684865"></polygon>
    </defs>
    <g id="Instagram-Light" stroke="none" stroke-width="1" fill="none" fill-rule="evenodd">
        <g id="Group-8">
            <g id="Group-3" transform="translate(0.000000, 0.076705)">
                <mask id="mask-2" fill="white">
                    <use xlink:href="#path-1"></use>
                </mask>
                <g id="Clip-2"></g>
                <path d="M22.9769923,0.0145110837 C16.7368614,0.0145110837 15.9543027,0.040961205 13.5036534,0.152781373 C11.0579292,0.264327918 9.38774087,0.652779871 7.92614365,1.22081903 C6.41529449,1.80792051 5.13383172,2.59358032 3.85647328,3.87093876 C2.57902363,5.1483884 1.79345503,6.42975997 1.20626234,7.94060913 C0.638223183,9.40220635 0.249862438,11.0723947 0.138224685,13.5181188 C0.0264045176,15.9688594 4.56036573e-05,16.7512357 4.56036573e-05,22.9914578 C4.56036573e-05,29.2316798 0.0264045176,30.0141474 0.138224685,32.4648879 C0.249862438,34.9105208 0.638223183,36.5808004 1.20626234,38.0423064 C1.79345503,39.5531556 2.57902363,40.8346183 3.85647328,42.1119768 C5.13383172,43.3894264 6.41529449,44.174995 7.92614365,44.7622789 C9.38774087,45.3302269 11.0579292,45.7186788 13.5036534,45.8303166 C15.9543027,45.9420455 16.7368614,45.9684956 22.9769923,45.9684956 C29.2172143,45.9684956 29.9995907,45.9420455 32.4503312,45.8303166 C34.8960554,45.7186788 36.5662437,45.3302269 38.0278409,44.7622789 C39.5387813,44.174995 40.8201528,43.3894264 42.0975113,42.1119768 C43.3749609,40.8346183 44.1605295,39.5532468 44.7477222,38.0423064 C45.3157614,36.5808004 45.7042133,34.9105208 45.8157599,32.4648879 C45.92758,30.0141474 45.9540302,29.2316798 45.9540302,22.9914578 C45.9540302,16.7513269 45.92758,15.9688594 45.8157599,13.5181188 C45.7042133,11.0723947 45.3157614,9.40220635 44.7477222,7.94060913 C44.1605295,6.42975997 43.3749609,5.1483884 42.0975113,3.87093876 C40.8201528,2.59358032 39.5387813,1.80792051 38.0278409,1.22081903 C36.5662437,0.652779871 34.8960554,0.264327918 32.4503312,0.152781373 C29.9995907,0.040961205 29.2172143,0.0145110837 22.9769923,0.0145110837 M22.9769923,4.1545023 C29.1121435,4.1545023 29.8387922,4.17785137 32.2616233,4.28839464 C34.5018573,4.39063804 35.7184717,4.76495285 36.528119,5.07961809 C37.6006259,5.49643552 38.3661288,5.99433625 39.1701213,6.79832872 C39.9741138,7.60241241 40.4720145,8.36782419 40.8889232,9.440331 C41.2034972,10.2499783 41.577812,11.4665927 41.6800554,13.7068268 C41.7905075,16.1296579 41.8139477,16.8563978 41.8139477,22.9914578 C41.8139477,29.126609 41.7905075,29.8533489 41.6800554,32.2760888 C41.577812,34.516414 41.2034972,35.7330284 40.8889232,36.5426757 C40.4720145,37.6150913 39.9741138,38.3805943 39.1701213,39.1845868 C38.3661288,39.9886705 37.6006259,40.4865712 36.528119,40.9033886 C35.7184717,41.2179627 34.5018573,41.5923687 32.2616233,41.6945209 C29.839157,41.8050642 29.1125995,41.8285044 22.9769923,41.8285044 C16.841385,41.8285044 16.1148276,41.8050642 13.6923613,41.6945209 C11.4521272,41.5923687 10.2354216,41.2179627 9.42577432,40.9033886 C8.35335871,40.4865712 7.58785572,39.9886705 6.78386324,39.1845868 C5.97987077,38.3805943 5.48187883,37.6150913 5.0650614,36.5426757 C4.75048737,35.7330284 4.37617256,34.516414 4.27392916,32.27618 C4.16338589,29.8533489 4.14003682,29.126609 4.14003682,22.9914578 C4.14003682,16.8563978 4.16338589,16.1296579 4.27392916,13.7068268 C4.37617256,11.4665927 4.75048737,10.2499783 5.0650614,9.440331 C5.48187883,8.36782419 5.97987077,7.60241241 6.78386324,6.79841993 C7.58785572,5.99433625 8.35335871,5.49643552 9.42577432,5.07961809 C10.2354216,4.76495285 11.4521272,4.39063804 13.6922701,4.28839464 C16.1151924,4.17785137 16.8418411,4.1545023 22.9769923,4.1545023" id="Fill-1" fill="#FFFFFF" mask="url(#mask-2)"></path>
            </g>
            <path d="M22.9769923,30.7272061 C18.7470707,30.7272061 15.3179493,27.2980847 15.3179493,23.0681631 C15.3179493,18.8382415 18.7470707,15.4092113 22.9769923,15.4092113 C27.2069139,15.4092113 30.6360353,18.8382415 30.6360353,23.0681631 C30.6360353,27.2980847 27.2069139,30.7272061 22.9769923,30.7272061 M22.9769923,11.2692201 C16.4605945,11.2692201 11.177958,16.5517653 11.177958,23.0681631 C11.177958,29.5846521 16.4605945,34.8671974 22.9769923,34.8671974 C29.4933901,34.8671974 34.7759353,29.5846521 34.7759353,23.0681631 C34.7759353,16.5517653 29.4933901,11.2692201 22.9769923,11.2692201" id="Fill-4" fill="#FFFFFF"></path>
            <path d="M37.9993934,10.8030413 C37.9993934,12.3258386 36.7649936,13.5602384 35.2421962,13.5602384 C33.7193989,13.5602384 32.4849079,12.3258386 32.4849079,10.8030413 C32.4849079,9.28024393 33.7193989,8.04584413 35.2421962,8.04584413 C36.7649936,8.04584413 37.9993934,9.28024393 37.9993934,10.8030413" id="Fill-6" fill="#FFFFFF"></path>
        </g>
    </g>
</svg>