<?xml version="1.0" encoding="UTF-8"?>
<svg width="541px" height="810px" viewBox="0 0 541 810" version="1.1" xmlns="http://www.w3.org/2000/svg" xmlns:xlink="http://www.w3.org/1999/xlink">
    <title>Combined Shape</title>
    <g id="Holding-Page-Desktop" stroke="none" stroke-width="1" fill="none" fill-rule="evenodd">
        <g id="Desktop-About" fill="#F8F8F9">
            <g id="Combined-Shape">
                <path d="M619.157392,617.5 L625.5,710.232083 C550.862457,707.955098 476.441428,707.43818 402.104095,707.227045 C327.779497,707.210664 253.560428,707.824048 179.414137,708.897926 L123.822613,709.857136 L96.035948,710.386794 C91.4290965,710.574268 -265.5,710.47234 -265.5,710.47234 L-265.5,689.948532 L-265.078231,689.948819 C-251.392939,689.95804 90.7846832,690.181327 95.3154451,689.458917 L122.965651,686.19178 L178.247868,679.561039 C251.935658,670.513163 325.54885,661.006614 399.054694,650.868479 C472.551441,640.53741 545.962674,629.898739 619.157392,617.5 Z M610.30654,477.5 L634.5,567.092324 L94.1721073,675.147496 L93.2914187,675.323748 C92.7073257,675.440038 92.0741034,675.496366 91.4991084,675.5 L-265.5,675.5 L-265.5,655.011164 L89.867,655.011 L610.30654,477.5 Z M91.4991084,655.011164 L89.867,655.011 L88.8297487,655.365485 L91.4991084,655.011164 Z M593.191612,342 L633,425.845359 L91.280024,640.013477 L90.5863585,640.289631 C89.3829126,640.769266 88.1066409,640.996366 86.8849886,641 L-266.212594,641 L-266.212594,627.355826 L-269,624.176424 L-269,620.513754 L84.292,620.513 L593.191612,342 Z M86.8849886,620.513754 L84.292,620.513 L82.4899532,621.500276 L86.8849886,620.513754 Z M586.194834,183.5 L640.5,258.789742 L85.1459665,604.568823 L84.6127422,604.908547 C82.9147958,605.989487 81.0239423,606.5 79.1494678,606.5 L79.1494678,606.5 L-266.5,606.5 L-266.159683,586.014805 L75.602,586.014 L586.194834,183.5 Z M79.1494678,586.014805 L75.602,586.014 L73.154789,587.944147 L79.1494678,586.014805 Z M571.170211,-5.68434189e-14 L638,64.4979682 L74.2266958,569.871713 L73.837283,570.237074 C71.8720221,572.080236 69.3462979,573 66.847869,573 L66.847869,573 L-266,573 L-265.887179,552.50345 L62.349,552.503 L571.170211,-5.68434189e-14 Z M66.847869,552.50345 L62.349,552.503 L59.4708619,555.629919 L66.847869,552.50345 Z" transform="translate(185.750000, 355.250000) scale(-1, 1) rotate(-270.000000) translate(-185.750000, -355.250000) "></path>
            </g>
        </g>
    </g>
</svg>