<?xml version="1.0" encoding="UTF-8"?>
<svg width="1089px" height="530px" viewBox="0 0 1089 530" version="1.1" xmlns="http://www.w3.org/2000/svg" xmlns:xlink="http://www.w3.org/1999/xlink">
    <title>Combined Shape</title>
    <defs>
        <rect id="path-1" x="0" y="0" width="1089" height="530"></rect>
    </defs>
    <g id="Images" stroke="none" stroke-width="1" fill="none" fill-rule="evenodd">
        <g id="Combined-Shape">
            <mask id="mask-2" fill="white">
                <use xlink:href="#path-1"></use>
            </mask>
            <use id="Mask" fill="#D8D8D8" opacity="0" xlink:href="#path-1"></use>
            <path d="M945.131509,-194.003987 C946.338609,-195.897541 948.858116,-196.469162 950.759928,-195.262499 L950.759928,-195.262499 L952.105341,-194.40778 C954.007153,-193.202688 954.571409,-190.684093 953.365881,-188.78297 L953.365881,-188.78297 L369.145135,732 L360.910764,726.778982 Z M917.421298,-195.240741 L917.622153,-195.119659 C919.946175,-193.645573 920.635997,-190.565393 919.162073,-188.239543 L347.834439,712.648538 C346.358944,714.974388 343.279104,715.664286 340.95351,714.188628 L302.116097,689.553478 C299.405524,687.832663 298.998545,684.042157 301.287998,681.79174 C326.270844,657.243023 451.757045,529.322853 597.843607,298.970998 C750.468543,58.3068272 885.957939,-154.594868 910.749081,-193.590569 C912.182419,-195.845387 915.125287,-196.553433 917.421298,-195.240741 Z M854.401058,-150.99565 C856.831929,-149.455268 857.551605,-146.234613 856.010116,-143.804582 L573.806006,301.269842 C573.806006,301.269842 472.609825,464.99984 263.547104,660.450697 C261.813911,662.072813 259.197622,662.318017 257.194157,661.046416 L181.997449,613.338595 C178.637913,611.20721 178.80919,606.248124 182.308575,604.354083 L301.963344,539.590465 C301.963344,539.590465 414.204508,482.099648 494.5348,383.205572 C574.865092,284.311497 597.292897,244.767699 598.887812,242.254362 L847.212156,-149.38768 C848.753645,-151.817711 851.973331,-152.537603 854.401058,-150.99565 Z M873.092235,-245.073054 C875.867601,-243.3132 876.690629,-239.63479 874.929913,-236.858305 L568.986285,245.706323 C568.986285,245.706323 517.865839,320.779823 468.356895,366.914719 C418.846381,413.049614 394.007879,436.944351 264.470392,493.985629 C157.027456,541.298999 118.736204,557.918623 108.800175,562.212982 C106.992339,562.993917 104.920632,562.82736 54.675046,578.686475 L-108.952162,474.864498 C-65.0834777,454.959288 -63.457839,447.704603 -57.9165315,447.014803 L240.268009,409.892875 C240.268009,409.892875 330.852994,400.395947 430.956211,346.709391 C531.060999,293.021264 571.285739,219.847463 617.502568,146.950211 L864.879225,-243.234635 C866.639941,-246.011119 870.316869,-246.83448 873.092235,-245.073054 Z M753.217156,-120.935249 C755.645603,-119.393146 756.365026,-116.17218 754.825648,-113.741915 L588.714233,148.354189 C587.518859,150.240553 568.790288,179.78887 536.380105,215.639214 C503.968351,251.489558 442.884903,306.168957 361.087401,321.252008 C279.289899,336.336631 155.0794,337.721536 155.0794,337.721536 L-129.628498,346.211066 C-133.802096,346.332787 -136.417467,341.737919 -134.180657,338.208847 L-11.4749791,144.598753 C-10.3110211,142.762692 -8.13075967,141.84309 -6.00547602,142.289529 L320.810684,211.053778 C320.810684,211.053778 378.28759,224.61359 423.185581,220.491885 C468.083573,216.37018 528.119302,224.50198 616.576968,84.9314937 L746.029205,-119.325552 C747.570153,-121.755817 750.788709,-122.475779 753.217156,-120.935249 Z" fill="#F8F8F9" mask="url(#mask-2)" transform="translate(409.500000, 243.000000) scale(1, -1) rotate(58.000000) translate(-409.500000, -243.000000) "></path>
        </g>
    </g>
</svg>