<?xml version="1.0" encoding="UTF-8"?>
<svg width="941px" height="1427px" viewBox="0 0 941 1427" version="1.1" xmlns="http://www.w3.org/2000/svg" xmlns:xlink="http://www.w3.org/1999/xlink">
    <title>Combined Shape</title>
    <defs>
        <rect id="path-1" x="0" y="0" width="941" height="1427"></rect>
    </defs>
    <g id="Images" stroke="none" stroke-width="1" fill="none" fill-rule="evenodd">
        <g id="Combined-Shape">
            <mask id="mask-2" fill="white">
                <use xlink:href="#path-1"></use>
            </mask>
            <use id="Mask" fill="#D8D8D8" opacity="0" xlink:href="#path-1"></use>
            <g id="Group-13" mask="url(#mask-2)" fill="#F8F8F9">
                <g transform="translate(-0.125341, 108.000000)" id="Combined-Shape">
                    <path d="M400.150834,328 C405.166683,328 409.208625,332.095203 409.125341,337.098424 C408.552495,370.61521 406.52238,489.846083 404.947211,578.697165 C403.095416,683.082641 401.243622,764.372997 379.026658,828.109873 C356.811981,891.849031 300.345961,917.713833 254.988423,928.7994 C209.633171,939.882686 191.119797,974.98508 167.053325,1053.50347 C142.984567,1132.02415 135.579674,1375.89293 135.579674,1375.89293 L135.579674,1375.89293 L136.505571,2051.15203 C136.505571,2051.15203 4.13654627,2053 1.35885429,2053 C-1.41655152,2053 1.35885429,1671.4936 1.35885429,1420.23292 C1.35885429,1301.3762 27.2771209,1122.78656 58.7507715,1030.41063 C90.2221359,938.036993 154.093048,931.569081 174.458217,928.7994 C194.823386,926.027438 224.442956,921.409783 278.131284,897.390674 C331.819612,873.373847 342.212523,843.879258 368.84636,758.829072 C378.100761,729.270602 380.878453,609.181904 384.582042,539.901103 C387.71409,481.286082 389.970536,370.179453 390.592373,337.356228 C390.690678,332.156802 394.940661,328 400.150834,328 Z M543.245582,383 C548.380174,383 552.55944,387.132566 552.6096,392.270905 C552.844441,416.509815 553.735927,483.752952 556.702225,539.421711 C560.395848,608.678675 563.166065,728.726055 572.397841,758.274355 C598.960005,843.297558 609.322668,872.779718 662.866517,896.790563 C716.410366,920.799127 745.952508,925.415193 766.260592,928.186201 C786.570957,930.95721 850.269989,937.420615 881.656661,1029.76247 C913.045614,1122.10661 938.894133,1305.56105 938.894133,1419.45063 C938.894133,1670.62487 941.66435,2052 938.894133,2052 C936.123916,2052 804.111105,2050.15266 804.111105,2050.15266 L805.034511,1375.1259 C805.034511,1375.1259 797.649545,1131.34103 773.647838,1052.84965 C749.64385,974.358271 731.180297,939.267954 685.944819,928.186201 C640.711621,917.104449 584.397555,891.248546 562.242659,827.533599 C540.085483,763.816372 538.238672,682.553986 536.39414,578.206706 C534.893891,493.537006 534.298807,417.748217 534.125341,392.175117 C534.093606,387.116601 538.181671,383 543.238742,383 L543.245582,383 Z M469.580711,0 C475.079947,0 479.539958,4.45609654 479.551353,9.95947843 L479.551353,9.95947843 L480.761504,667.711727 C480.761504,667.711727 483.220549,866.027417 493.063566,890.66258 C500.846363,910.138894 507.826952,914.067925 520.131293,949.787429 C532.433355,985.509215 536.125341,1335.33447 536.125341,1335.33447 L536.125341,1335.33447 L536.125341,2041.01999 C536.125341,2046.5325 531.660772,2051 526.156978,2051 L526.156978,2051 L415.700506,2051 C410.187596,2051 405.720749,2046.52565 405.732144,2041.0063 C405.887116,1967.96099 406.739463,1514.33813 404.478692,1339.03077 C402.017368,1148.1054 413.091047,981.815195 416.783033,954.715831 C420.47274,927.616466 430.315757,923.920165 445.081422,889.43048 C459.844808,854.940795 459.844808,714.517853 458.614146,668.941545 C457.481481,627.002216 458.434104,84.4353858 458.591356,9.95263343 C458.60503,4.44696987 463.062761,0 468.561997,0 L468.561997,0 Z M437.801329,73 C442.989371,73 447.181728,77.2433868 447.125341,82.4381135 L441.077747,635.8556 C441.077747,635.8556 443.538479,783.650937 428.778646,840.306995 C414.016535,896.960771 409.097351,908.046049 386.955324,925.2888 C364.815575,942.531551 358.666025,959.774303 353.744562,1001.64923 C348.825377,1043.52416 330.374447,1174.07902 332.832901,1452.42695 C335.227557,1723.36947 334.127063,2033.98767 334.065545,2050.32471 C334.065545,2050.70114 333.760232,2051 333.384287,2051 L200.664275,2051 C200.290608,2051 199.987574,2050.7057 199.983017,2050.32927 C199.798462,2028.19978 195.189147,1463.72439 201.220218,1351.43206 C207.369769,1236.89256 221.471127,1050.72423 249.190813,975.785103 C273.791293,909.278 349.764101,940.521646 389.416055,845.232517 C395.565606,830.453668 414.016535,776.261512 418.937998,617.380898 C423.107571,482.730934 426.821453,142.085075 427.452585,82.0936235 C427.50499,77.05175 431.603931,73 436.639316,73 L437.801329,73 Z M504.390084,274 C509.54376,274 513.740096,278.143026 513.794801,283.301276 C514.243839,323.814413 516.236016,488.613769 520.224929,617.373817 C525.146108,776.255217 543.604517,830.44764 549.75656,845.226562 C589.426868,940.516162 665.428195,909.272361 690.038647,975.779793 C717.769569,1050.71929 731.876645,1236.88853 738.030967,1351.4286 C744.18301,1465.97096 739.261832,2051 739.261832,2051 L739.261832,2051 L605.131788,2051 C605.131788,2051 603.900923,1730.77329 606.362652,1452.42399 C608.822102,1174.07469 590.365972,1043.52146 585.442514,1001.64405 C580.521335,959.768913 574.369292,942.526077 552.218289,925.28324 C530.069566,908.040404 525.146108,896.955072 510.380292,840.301015 C495.612197,783.644678 498.073926,635.848611 498.073926,635.848611 L498.073926,635.848611 L494.125341,284.389505 C494.05994,278.672311 498.675682,274 504.390084,274 Z"></path>
                </g>
            </g>
        </g>
    </g>
</svg>