<?xml version="1.0" encoding="UTF-8"?>
<svg width="15px" height="15px" viewBox="0 0 15 15" version="1.1" xmlns="http://www.w3.org/2000/svg" xmlns:xlink="http://www.w3.org/1999/xlink">
    <!-- Generator: Sketch 54.1 (76490) - https://sketchapp.com -->
    <title>Group 9 Copy 12</title>
    <desc>Created with Sketch.</desc>
    <g id="Holding-Page-Desktop" stroke="none" stroke-width="1" fill="none" fill-rule="evenodd">
        <g id="Group-9-Copy-12" fill="#5AEDB7">
            <path d="M14.4665419,0.993097269 C14.466339,0.867404817 14.4537596,0.739886324 14.4305283,0.616425699 C14.3602257,0.241783062 14.1100582,0.00297754696 13.7700089,0.0024703135 C11.8213194,-0.000573087289 9.87262983,-0.0017904476 7.92394031,0.00470214074 C7.59048503,0.00591950105 7.32205708,0.169857357 7.14797456,0.454618224 C6.7663321,1.07922551 7.21188597,1.83185853 7.97141736,1.83865545 C8.92461049,1.84727842 9.87790506,1.84088728 10.8311996,1.84098873 L11.3273754,1.84098873 C11.2378994,1.93787032 11.1858573,1.99934702 11.1285399,2.05554848 C10.7006377,2.47472622 10.271924,2.89309238 9.84310885,3.31145854 C9.03985393,4.09493135 8.2341643,4.87596944 7.43395278,5.66258709 C6.93716833,6.15105292 7.02136908,6.85144089 7.60762952,7.17221533 C7.98247505,7.37734054 8.36066832,7.30267578 8.72415182,6.93959806 C9.95388863,5.7114844 11.1810893,4.48073312 12.4097102,3.2514021 C12.4667232,3.19438906 12.5273883,3.14123099 12.6341103,3.04191468 C12.6341103,3.19185289 12.6340088,3.28072019 12.6341103,3.36968894 C12.6353276,4.40759006 12.6253858,5.44569407 12.6419217,6.48329084 C12.6521678,7.12554985 13.2872241,7.533467 13.877238,7.30348735 C14.2728801,7.14918693 14.4666433,6.82222424 14.4673534,6.28384664 C14.4693824,4.52029733 14.4687737,2.75664658 14.4665419,0.993097269" id="Fill-1"></path>
            <path d="M12.6720107,9.45327465 L11.3072484,9.45327465 C11.1760778,9.45327465 11.0697617,9.55928645 11.0698631,9.69055847 C11.0706747,10.3661934 11.073008,12.2533048 11.073008,12.2750144 C11.0738195,12.4744586 11.0313134,12.5575435 10.8098553,12.5570362 C7.90766826,12.5505436 5.00537983,12.5506451 2.10319284,12.5569348 C1.89756039,12.5573406 1.85079346,12.4916031 1.85119925,12.2954052 C1.85728605,9.40092816 1.85819907,6.50624823 1.85069202,3.61177119 C1.85018478,3.43860168 1.89208227,3.37276278 2.01483277,3.35470527 L4.63733122,3.35470527 C4.7685018,3.35470527 4.87481793,3.24838913 4.87481793,3.11721856 L4.87481793,1.75134029 C4.87481793,1.62027116 4.7685018,1.51395502 4.63733122,1.51395502 L1.04013294,1.51395502 L1.04013294,1.5160854 C0.312861601,1.53353424 0.000608680157,1.86009114 0.000507233464,2.60460842 C-0.000202893386,6.15737305 -0.000101446693,9.71023913 0.000405786771,13.2630038 C0.000507233464,14.0317668 0.323817844,14.3576136 1.08730565,14.3580194 C2.86739077,14.3588309 4.64757734,14.3582223 6.42766246,14.3581208 C8.25005085,14.3579179 10.0723378,14.3607584 11.8946247,14.3563962 C12.5484487,14.3547731 12.9071642,13.9896664 12.9089902,13.3346251 C12.9118307,12.3587079 12.9101061,10.3724831 12.909396,9.68984834 C12.9092946,9.55888066 12.8030799,9.45327465 12.6720107,9.45327465" id="Fill-4"></path>
        </g>
    </g>
</svg>