<?xml version="1.0" encoding="UTF-8"?>
<svg width="46px" height="46px" viewBox="0 0 46 46" version="1.1" xmlns="http://www.w3.org/2000/svg" xmlns:xlink="http://www.w3.org/1999/xlink">
    <title>LinkedIn-Dark</title>
    <g id="LinkedIn-Dark" stroke="none" stroke-width="1" fill="none" fill-rule="evenodd">
        <path d="M39.1991875,39.1963125 L32.3768125,39.1963125 L32.3768125,28.5214375 C32.3768125,25.975625 32.3336875,22.701 28.8319375,22.701 C25.28275,22.701 24.7408125,25.475375 24.7408125,28.338875 L24.7408125,39.1963125 L17.925625,39.1963125 L17.925625,17.24425 L24.46625,17.24425 L24.46625,20.24575 L24.5596875,20.24575 C25.469625,18.5193125 27.694875,16.6994375 31.0140625,16.6994375 C37.9226875,16.6994375 39.1991875,21.2448125 39.1991875,27.15725 L39.1991875,39.1963125 Z M10.2335625,14.245625 C8.041375,14.245625 6.2746875,12.4731875 6.2746875,10.2881875 C6.2746875,8.104625 8.041375,6.3321875 10.2335625,6.3321875 C12.4156875,6.3321875 14.188125,8.104625 14.188125,10.2881875 C14.188125,12.4731875 12.4156875,14.245625 10.2335625,14.245625 L10.2335625,14.245625 Z M13.6461875,39.1963125 L6.816625,39.1963125 L6.816625,17.24425 L13.6461875,17.24425 L13.6461875,39.1963125 Z M44.0838125,0 L1.917625,0 C0.8581875,0 0,0.8581875 0,1.9161875 L0,44.082375 C0,45.1418125 0.8581875,46 1.917625,46 L44.0838125,46 C45.1418125,46 46,45.1418125 46,44.082375 L46,1.9161875 C46,0.8581875 45.1418125,0 44.0838125,0 L44.0838125,0 Z" id="Fill-33" fill="#161F35"></path>
    </g>
</svg>