<?xml version="1.0" encoding="utf-8"?>
<!-- Generator: Adobe Illustrator 25.1.0, SVG Export Plug-In . SVG Version: 6.00 Build 0)  -->
<svg version="1.1" id="Layer_1" xmlns="http://www.w3.org/2000/svg" xmlns:xlink="http://www.w3.org/1999/xlink" x="0px" y="0px"
	 viewBox="0 0 79 60" style="enable-background:new 0 0 79 60;" xml:space="preserve">
<style type="text/css">
	.st0{fill-rule:evenodd;clip-rule:evenodd;fill:#142832;}
	.st1{filter:url(#Adobe_OpacityMaskFilter);}
	.st2{fill-rule:evenodd;clip-rule:evenodd;fill:#FFFFFF;}
	.st3{mask:url(#mask-2_1_);fill-rule:evenodd;clip-rule:evenodd;fill:#142832;}
	.st4{filter:url(#Adobe_OpacityMaskFilter_1_);}
	.st5{mask:url(#mask-4_1_);fill-rule:evenodd;clip-rule:evenodd;fill:#142832;}
</style>
<g id="Page-1">
	<g id="Desktop-Q_x26_A-Copy" transform="translate(-63.000000, -5509.000000)">
		<g id="Group-23" transform="translate(63.000000, 5509.000000)">
			<path id="Fill-1" class="st0" d="M33.2,58.7c-1.3,0-2.3-1-2.3-2.3V3.3C30.9,2,32,1,33.2,1c1.3,0,2.3,1,2.3,2.3v53.2
				C35.5,57.7,34.5,58.7,33.2,58.7"/>
			<path id="Fill-3" class="st0" d="M25.5,58.7c-1.3,0-2.3-1-2.3-2.3V8.9c0-1.3,1-2.3,2.3-2.3c1.3,0,2.3,1,2.3,2.3v47.5
				C27.8,57.7,26.7,58.7,25.5,58.7"/>
			<path id="Fill-5" class="st0" d="M17.7,58.7c-1.3,0-2.3-1-2.3-2.3V14.6c0-1.3,1-2.3,2.3-2.3c1.3,0,2.3,1,2.3,2.3v41.8
				C20,57.7,19,58.7,17.7,58.7"/>
			<path id="Fill-7" class="st0" d="M10,58.7c-1.3,0-2.3-1-2.3-2.3V20.3c0-1.3,1-2.3,2.3-2.3c1.3,0,2.3,1,2.3,2.3v36.2
				C12.3,57.7,11.3,58.7,10,58.7"/>
			<g id="Group-11" transform="translate(0.000000, 22.731900)">
				<g id="Clip-10">
				</g>
				<defs>
					<filter id="Adobe_OpacityMaskFilter" filterUnits="userSpaceOnUse" x="0" y="1" width="4.5" height="35">
						<feColorMatrix  type="matrix" values="1 0 0 0 0  0 1 0 0 0  0 0 1 0 0  0 0 0 1 0"/>
					</filter>
				</defs>
				<mask maskUnits="userSpaceOnUse" x="0" y="1" width="4.5" height="35" id="mask-2_1_">
					<g class="st1">
						<polygon id="path-1_1_" class="st2" points="0,1 4.5,1 4.5,36 0,36 						"/>
					</g>
				</mask>
				<path id="Fill-9" class="st3" d="M2.3,36C1,36,0,35,0,33.7V3.2C0,2,1,1,2.3,1c1.3,0,2.3,1,2.3,2.3v30.5C4.5,35,3.5,36,2.3,36"/>
			</g>
			<g id="Group-14" transform="translate(73.000000, 0.731900)">
				<g id="Clip-13">
				</g>
				<defs>
					<filter id="Adobe_OpacityMaskFilter_1_" filterUnits="userSpaceOnUse" x="0.9" y="0.3" width="4.5" height="57.7">
						<feColorMatrix  type="matrix" values="1 0 0 0 0  0 1 0 0 0  0 0 1 0 0  0 0 0 1 0"/>
					</filter>
				</defs>
				<mask maskUnits="userSpaceOnUse" x="0.9" y="0.3" width="4.5" height="57.7" id="mask-4_1_">
					<g class="st4">
						<polygon id="path-3_1_" class="st2" points="0.9,0.3 5.5,0.3 5.5,58 0.9,58 						"/>
					</g>
				</mask>
				<path id="Fill-12" class="st5" d="M3.2,58c-1.3,0-2.3-1-2.3-2.3V2.5c0-1.3,1-2.3,2.3-2.3c1.3,0,2.3,1,2.3,2.3v53.2
					C5.5,57,4.5,58,3.2,58"/>
			</g>
			<path id="Fill-15" class="st0" d="M68.5,58.7c-1.3,0-2.3-1-2.3-2.3V8.9c0-1.3,1-2.3,2.3-2.3c1.3,0,2.3,1,2.3,2.3v47.5
				C70.7,57.7,69.7,58.7,68.5,58.7"/>
			<path id="Fill-17" class="st0" d="M60.7,58.7c-1.3,0-2.3-1-2.3-2.3V14.6c0-1.3,1-2.3,2.3-2.3c1.3,0,2.3,1,2.3,2.3v41.8
				C63,57.7,62,58.7,60.7,58.7"/>
			<path id="Fill-19" class="st0" d="M53,58.7c-1.3,0-2.3-1-2.3-2.3V20.3c0-1.3,1-2.3,2.3-2.3c1.3,0,2.3,1,2.3,2.3v36.2
				C55.3,57.7,54.3,58.7,53,58.7"/>
			<path id="Fill-21" class="st0" d="M45.3,58.7c-1.3,0-2.3-1-2.3-2.3V26c0-1.3,1-2.3,2.3-2.3c1.3,0,2.3,1,2.3,2.3v30.5
				C47.5,57.7,46.5,58.7,45.3,58.7"/>
		</g>
	</g>
</g>
</svg>
