<?xml version="1.0" encoding="UTF-8"?>
<svg width="79px" height="60px" viewBox="0 0 79 60" version="1.1" xmlns="http://www.w3.org/2000/svg" xmlns:xlink="http://www.w3.org/1999/xlink">
    <title>Group 23</title>
    <defs>
        <polygon id="path-1" points="0 0.968 4.5405 0.968 4.5405 36 0 36"></polygon>
        <polygon id="path-3" points="0.9409 0.268 5.481 0.268 5.481 58 0.9409 58"></polygon>
    </defs>
    <g id="Page-1" stroke="none" stroke-width="1" fill="none" fill-rule="evenodd">
        <g id="Desktop-Q&amp;A-Copy" transform="translate(-63.000000, -5509.000000)">
            <g id="Group-23" transform="translate(63.000000, 5509.000000)">
                <path d="M33.2168,58.7319 C31.9628,58.7319 30.9458,57.7149 30.9458,56.4619 L30.9458,3.2699 C30.9458,2.0169 31.9628,0.9999 33.2168,0.9999 C34.4698,0.9999 35.4868,2.0169 35.4868,3.2699 L35.4868,56.4619 C35.4868,57.7149 34.4698,58.7319 33.2168,58.7319" id="Fill-1" fill="#FFFFFF"></path>
                <path d="M25.4805,58.7319 C24.2265,58.7319 23.2095,57.7149 23.2095,56.4619 L23.2095,8.9449 C23.2095,7.6909 24.2265,6.6749 25.4805,6.6749 C26.7335,6.6749 27.7505,7.6909 27.7505,8.9449 L27.7505,56.4619 C27.7505,57.7149 26.7335,58.7319 25.4805,58.7319" id="Fill-3" fill="#FFFFFF"></path>
                <path d="M17.7432,58.7319 C16.4892,58.7319 15.4722,57.7149 15.4722,56.4619 L15.4722,14.6199 C15.4722,13.3659 16.4892,12.3499 17.7432,12.3499 C18.9962,12.3499 20.0132,13.3659 20.0132,14.6199 L20.0132,56.4619 C20.0132,57.7149 18.9962,58.7319 17.7432,58.7319" id="Fill-5" fill="#FFFFFF"></path>
                <path d="M10.0068,58.7319 C8.7528,58.7319 7.7358,57.7149 7.7358,56.4619 L7.7358,20.2949 C7.7358,19.0409 8.7528,18.0249 10.0068,18.0249 C11.2598,18.0249 12.2768,19.0409 12.2768,20.2949 L12.2768,56.4619 C12.2768,57.7149 11.2598,58.7319 10.0068,58.7319" id="Fill-7" fill="#FFFFFF"></path>
                <g id="Group-11" transform="translate(0.000000, 22.731900)">
                    <mask id="mask-2" fill="white">
                        <use xlink:href="#path-1"></use>
                    </mask>
                    <g id="Clip-10"></g>
                    <path d="M2.2695,36 C1.0165,36 -0.0005,34.983 -0.0005,33.73 L-0.0005,3.238 C-0.0005,1.984 1.0165,0.968 2.2695,0.968 C3.5235,0.968 4.5405,1.984 4.5405,3.238 L4.5405,33.73 C4.5405,34.983 3.5235,36 2.2695,36" id="Fill-9" fill="#FFFFFF" mask="url(#mask-2)"></path>
                </g>
                <g id="Group-14" transform="translate(73.000000, 0.731900)">
                    <mask id="mask-4" fill="white">
                        <use xlink:href="#path-3"></use>
                    </mask>
                    <g id="Clip-13"></g>
                    <path d="M3.2109,58 C1.9579,58 0.9409,56.983 0.9409,55.73 L0.9409,2.538 C0.9409,1.285 1.9579,0.268 3.2109,0.268 C4.4649,0.268 5.4819,1.285 5.4819,2.538 L5.4819,55.73 C5.4819,56.983 4.4649,58 3.2109,58" id="Fill-12" fill="#FFFFFF" mask="url(#mask-4)"></path>
                </g>
                <path d="M68.4746,58.7319 C67.2206,58.7319 66.2046,57.7149 66.2046,56.4619 L66.2046,8.9449 C66.2046,7.6909 67.2206,6.6749 68.4746,6.6749 C69.7286,6.6749 70.7446,7.6909 70.7446,8.9449 L70.7446,56.4619 C70.7446,57.7149 69.7286,58.7319 68.4746,58.7319" id="Fill-15" fill="#FFFFFF"></path>
                <path d="M60.7383,58.7319 C59.4843,58.7319 58.4673,57.7149 58.4673,56.4619 L58.4673,14.6199 C58.4673,13.3659 59.4843,12.3499 60.7383,12.3499 C61.9923,12.3499 63.0083,13.3659 63.0083,14.6199 L63.0083,56.4619 C63.0083,57.7149 61.9923,58.7319 60.7383,58.7319" id="Fill-17" fill="#FFFFFF"></path>
                <path d="M53.002,58.7319 C51.748,58.7319 50.731,57.7149 50.731,56.4619 L50.731,20.2949 C50.731,19.0409 51.748,18.0249 53.002,18.0249 C54.255,18.0249 55.272,19.0409 55.272,20.2949 L55.272,56.4619 C55.272,57.7149 54.255,58.7319 53.002,58.7319" id="Fill-19" fill="#FFFFFF"></path>
                <path d="M45.2656,58.7319 C44.0116,58.7319 42.9946,57.7149 42.9946,56.4619 L42.9946,25.9699 C42.9946,24.7159 44.0116,23.6999 45.2656,23.6999 C46.5186,23.6999 47.5356,24.7159 47.5356,25.9699 L47.5356,56.4619 C47.5356,57.7149 46.5186,58.7319 45.2656,58.7319" id="Fill-21" fill="#FFFFFF"></path>
            </g>
        </g>
    </g>
</svg>