<?xml version="1.0" encoding="UTF-8"?>
<svg width="781px" height="795px" viewBox="0 0 781 795" version="1.1" xmlns="http://www.w3.org/2000/svg" xmlns:xlink="http://www.w3.org/1999/xlink">
    <title>Combined Shape</title>
    <g id="Holding-Page-Desktop" stroke="none" stroke-width="1" fill="none" fill-rule="evenodd">
        <g id="Desktop-Sign-Up" transform="translate(0.000000, -15.000000)" fill="#F8F8F9">
            <g id="Combined-Shape">
                <g id="Group-14" transform="translate(248.000000, 548.000000) rotate(-90.000000) translate(-248.000000, -548.000000) translate(-285.000000, 15.000000)">
                    <path d="M104.13018,481.09908 C139.81338,483.50568 197.08668,494.28498 269.64798,522.19608 C369.09558,560.44758 522.29058,640.69488 687.36738,805.76958 L687.36738,805.76958 L936.53238,1054.93668 L925.49058,1065.97848 L676.32348,816.81348 C501.97098,642.45888 309.67398,591.68088 179.05818,579.78438 C113.26728,573.79098 51.15138,576.83178 -0.000420000002,585.22758 L-0.000420000002,585.22758 Z M338.72727,246.50031 C351.39447,267.74601 374.47557,303.84711 412.77537,355.64991 C473.50737,437.79351 581.60067,571.41441 751.66077,741.47451 L751.66077,741.47451 L1065.31467,1055.12841 L1055.65047,1064.79261 L741.99867,751.13871 C571.93647,581.07651 438.31557,472.98531 356.17197,412.25331 C304.36917,373.95351 268.27017,350.86821 247.02447,338.20311 L247.02447,338.20311 Z M223.77915,361.44738 C249.73095,376.54428 292.13835,403.99548 350.77665,448.09758 C429.73875,507.48768 557.77785,612.19998 719.35815,773.77818 L719.35815,773.77818 L935.02815,989.44818 L925.15605,999.32238 L709.48605,783.65028 C537.14115,611.30748 376.93635,529.06728 272.88345,490.42308 C210.29505,467.17188 162.52005,457.49088 131.72565,453.50088 L131.72565,453.50088 Z M585.22926,-0.00126 C576.83346,51.15054 573.79266,113.26434 579.78396,179.05734 C591.68256,309.67104 642.46056,501.96804 816.81306,676.32264 L816.81306,676.32264 L1037.18706,896.69664 L1026.14526,907.73844 L805.77126,687.36654 C640.69446,522.28974 560.44926,369.09474 522.19566,269.64714 C494.28456,197.08794 483.50736,139.81044 481.10076,104.12724 L481.10076,104.12724 Z M453.50403,131.72481 C457.48983,162.52131 467.17503,210.29211 490.42413,272.88261 C529.06833,376.93551 611.31273,537.13821 783.65343,709.48311 L783.65343,709.48311 L970.28043,896.11011 L960.40623,905.98431 L773.77923,719.35731 C612.20103,557.77701 507.48873,429.74001 448.09863,350.77581 C403.99443,292.13961 376.54323,249.73011 361.45053,223.77831 L361.45053,223.77831 Z" id="Combined-Shape"></path>
                </g>
            </g>
        </g>
    </g>
</svg>